<svg xmlns="http://www.w3.org/2000/svg" width="512" height="512"><defs><marker orient="auto" overflow="visible" id="a" viewBox="-1 -4 10 8" markerWidth="10" markerHeight="8" color="#000"><path d="M8 0L0-3v6z" fill="currentColor" stroke="currentColor"/></marker><marker orient="auto" overflow="visible" id="b" viewBox="-1 -4 10 8" markerWidth="10" markerHeight="8" color="#000"><path d="M8 0L0-3v6z" fill="currentColor" stroke="currentColor"/></marker><marker orient="auto" overflow="visible" id="c" viewBox="-1 -4 10 8" markerWidth="10" markerHeight="8" color="#000"><path d="M8 0L0-3v6z" fill="currentColor" stroke="currentColor"/></marker></defs><path d="M295.247 106.26H511.45v131.1H295.246z" fill="#fff"/><path d="M113.338 335.626c0-6.784-1.426-7.623-11.85-14.336l-.112-.07c-10.48-6.783-10.587-6.783-21.343-6.783H.968v71.608h112.37v-50.42z" fill="#ccf1ef"/><path d="M113.338 335.626c0-6.784-1.427-7.623-11.85-14.336l-.112-.07c-10.48-6.783-10.588-6.783-21.343-6.783H.968v71.61h112.37v-50.42zm0-.35c0-6.434-.11-6.434-22.55-6.434 0-14.335 0-14.405-10.097-14.405" fill="none" stroke="#000"/><text font-size="15" x="5.649" y="354.119" font-family="Arial">update.webapp</text><path d="M112.922 149.22c0-6.783-1.426-7.623-11.85-14.336l-.112-.07c-10.48-6.782-10.587-6.782-21.343-6.782H.552v71.61h112.37V149.22z" fill="#ccf1ef"/><path d="M112.922 149.22c0-6.782-1.427-7.622-11.85-14.335l-.112-.07c-10.48-6.783-10.588-6.783-21.343-6.783H.552v71.61h112.37v-50.42zm0-.348c0-6.434-.11-6.434-22.55-6.434 0-14.336 0-14.406-10.097-14.406" fill="none" stroke="#000"/><text font-size="15" x="12.554" y="167.718" font-family="Arial">manifest.json</text><path d="M295.247 106.26H511.45v131.1H295.246z" fill="none" stroke="#000" stroke-dasharray="1,4" stroke-miterlimit="2"/><text font-size="15" x="349.731" y="129.395" font-family="Arial">Injected content</text><path d="M371.54 187.93c0-4.28-.722-4.81-5.986-9.043l-.055-.044c-5.3-4.28-5.35-4.28-10.78-4.28H314.8v45.17h56.737V187.93z" fill="#ccf1ef"/><path d="M371.54 187.93c0-4.28-.722-4.81-5.985-9.044l-.056-.044c-5.3-4.278-5.35-4.278-10.78-4.278H314.8v45.168h56.737V187.93zm0-.22c0-4.06-.057-4.06-11.387-4.06 0-9.042 0-9.086-5.098-9.086" fill="none" stroke="#000"/><path d="M384.76 175.81c0-4.278-.722-4.808-5.986-9.042l-.055-.044c-5.3-4.28-5.35-4.28-10.78-4.28h-39.92v45.17h56.73V175.81z" fill="#ccf1ef"/><path d="M384.76 175.81c0-4.278-.722-4.808-5.985-9.042l-.056-.044c-5.3-4.28-5.35-4.28-10.78-4.28h-39.92v45.17h56.73V175.81zm0-.22c0-4.058-.057-4.058-11.387-4.058 0-9.042 0-9.087-5.098-9.087" fill="none" stroke="#000"/><path d="M397.703 162.59c0-4.278-.72-4.808-5.984-9.042l-.06-.044c-5.29-4.28-5.35-4.28-10.78-4.28h-39.92v45.17h56.74V162.59z" fill="#ccf1ef"/><path d="M397.703 162.59c0-4.278-.72-4.808-5.984-9.042l-.06-.044c-5.29-4.28-5.35-4.28-10.78-4.28h-39.92v45.17h56.74V162.59zm0-.22c0-4.058-.055-4.058-11.385-4.058 0-9.042 0-9.087-5.098-9.087" fill="none" stroke="#000"/><text font-size="15" x="360.517" y="177.33" font-family="Arial">JS</text><path d="M470.138 188.48c0-4.28-.72-4.81-5.984-9.043l-.055-.044c-5.3-4.278-5.35-4.278-10.78-4.278H413.4v45.168h56.737V188.48z" fill="#ccf1ef"/><path d="M470.138 188.48c0-4.28-.72-4.808-5.984-9.043l-.055-.044c-5.3-4.278-5.35-4.278-10.78-4.278H413.4v45.168h56.737V188.48zm0-.22c0-4.06-.055-4.06-11.386-4.06 0-9.04 0-9.085-5.097-9.085" fill="none" stroke="#000"/><path d="M483.358 176.362c0-4.28-.72-4.81-5.984-9.043l-.055-.05c-5.3-4.28-5.35-4.28-10.78-4.28h-39.92v45.17h56.73v-31.8z" fill="#ccf1ef"/><path d="M483.358 176.36c0-4.277-.72-4.807-5.984-9.04l-.055-.045c-5.3-4.28-5.35-4.28-10.78-4.28h-39.92v45.17h56.73V176.36zm0-.22c0-4.057-.055-4.057-11.386-4.057 0-9.043 0-9.087-5.097-9.087" fill="none" stroke="#000"/><path d="M496.303 163.142c0-4.28-.72-4.81-5.984-9.043l-.06-.05c-5.29-4.28-5.35-4.28-10.78-4.28h-39.92v45.17h56.74v-31.8z" fill="#ccf1ef"/><path d="M496.303 163.14c0-4.277-.72-4.807-5.984-9.04l-.06-.045c-5.29-4.28-5.35-4.28-10.78-4.28h-39.92v45.17h56.74V163.14zm0-.22c0-4.057-.056-4.057-11.386-4.057 0-9.043 0-9.087-5.098-9.087" fill="none" stroke="#000"/><text font-size="15" x="452.086" y="177.881" font-family="Arial">CSS</text><path d="M295.247 274.64H511.45v131.1H295.246z" fill="#fff"/><path d="M295.247 274.64H511.45v131.1H295.246z" fill="none" stroke="#000" stroke-dasharray="1,4"/><text font-size="15" y="297.775" x="385.008" font-family="Arial">Icons</text><path d="M418.634 356.31c0-4.28-.72-4.81-5.985-9.043l-.06-.044c-5.29-4.28-5.35-4.28-10.78-4.28h-39.92v45.17h56.73V356.31z" fill="#ccf1ef"/><path d="M418.634 356.31c0-4.28-.72-4.81-5.984-9.044l-.056-.044c-5.29-4.278-5.346-4.278-10.776-4.278h-39.92v45.168h56.736V356.31zm0-.22c0-4.06-.056-4.06-11.386-4.06 0-9.042 0-9.086-5.098-9.086" fill="none" stroke="#000"/><path d="M431.854 344.19c0-4.278-.72-4.808-5.985-9.042l-.06-.044c-5.29-4.28-5.35-4.28-10.78-4.28h-39.92v45.17h56.73V344.19z" fill="#ccf1ef"/><path d="M431.854 344.19c0-4.278-.72-4.808-5.984-9.042l-.056-.044c-5.29-4.28-5.346-4.28-10.776-4.28h-39.92v45.17h56.736V344.19zm0-.22c0-4.058-.056-4.058-11.386-4.058 0-9.042 0-9.087-5.098-9.087" fill="none" stroke="#000"/><path d="M444.798 330.97c0-4.278-.72-4.808-5.984-9.042l-.055-.044c-5.3-4.28-5.35-4.28-10.78-4.28h-39.92v45.17h56.73V330.97z" fill="#ccf1ef"/><path d="M444.798 330.97c0-4.278-.72-4.808-5.984-9.042l-.055-.044c-5.3-4.28-5.35-4.28-10.78-4.28h-39.92v45.17h56.73V330.97zm0-.22c0-4.058-.055-4.058-11.385-4.058 0-9.042 0-9.087-5.098-9.087" fill="none" stroke="#000"/><text font-size="15" y="345.619" x="398.202" font-family="Arial">icons</text><path d="M112.948 366.7l164.377-1.893" fill="none" stroke="#000" stroke-width="2" marker-end="url(#a)"/><path d="M112.948 157.906l164.377-1.894" fill="none" stroke="#000" stroke-width="2" marker-end="url(#b)"/><path d="M112.738 174.13l168.926 156.738" fill="none" stroke="#000" stroke-width="2" marker-end="url(#c)"/></svg>